#!OML:ASF H:\ManfredETheater\Project 1\Capture day 1\Session 1\subject.ASF
:FULLY-SPECIFIED
:DEGREES
196
root 0.322153 17.8874 -23.378 -180.025 22.3822 -182.404
lowerback 9.43509 0.314336 0.273416
upperback -0.592876 0.674457 2.59383
thorax -5.95113 0.39579 2.46224
lowerneck -15.5578 3.94492 3.48678
upperneck 18.7881 6.77174 -7.92172
head 8.84591 2.79357 -2.4017
rclavicle -3.55825e-014 2.06736e-014
rhumerus -48.4104 -18.9209 -57.386
rradius 55.9723
rwrist -9.5276
rhand -25.5322 -11.6737
rfingers 7.12502
rthumb 0.997578 -41.6511
lclavicle -3.55825e-014 2.06736e-014
lhumerus -49.9546 20.2315 74.2358
lradius 41.2252
lwrist -12.0419
lhand -13.9081 0.843226
lfingers 7.12502
lthumb 12.2177 30.4664
rfemur -13.3571 -3.85499 16.0446
rtibia 34.1954
rfoot -15.4376 -7.59548
rtoes -28.4535
lfemur -24.4134 -3.03871 -18.0328
ltibia 38.3211
lfoot -11.1917 0.63718
ltoes -1.25795
197
root 0.338228 17.8985 -23.4081 -179.874 22.3531 -182.365
lowerback 9.421 0.31316 0.21034
upperback -0.635684 0.66555 2.59845
thorax -5.98871 0.393378 2.50438
lowerneck -15.5765 3.96607 3.51433
upperneck 18.9216 6.81523 -7.92801
head 8.89888 2.81481 -2.40274
rclavicle 2.18663e-014 -3.49861e-014
rhumerus -47.9539 -18.6631 -57.8687
rradius 56.532
rwrist -9.59412
rhand -25.4602 -11.429
rfingers 7.12502
rthumb 1.06714 -41.4061
lclavicle 2.18663e-014 -3.49861e-014
lhumerus -49.5677 19.5903 74.9312
lradius 41.0509
lwrist -11.9378
lhand -13.7009 0.819698
lfingers 7.12502
lthumb 12.4175 30.4309
rfemur -13.1904 -3.77689 16.0965
rtibia 33.8661
rfoot -15.4406 -7.63614
rtoes -28.2663
lfemur -24.3577 -3.11148 -17.9732
ltibia 38.1774
lfoot -11.245 0.676173
ltoes -1.27996
198
root 0.354325 17.9092 -23.4378 -179.707 22.3126 -182.286
lowerback 9.40543 0.306413 0.186455
upperback -0.678791 0.654702 2.60992
thorax -6.02533 0.389179 2.53183
lowerneck -15.6002 3.9861 3.53864
upperneck 19.0552 6.85534 -7.92485
head 8.95217 2.83489 -2.4004
rclavicle -3.38928e-014 -2.22639e-014
rhumerus -47.5126 -18.4115 -58.3585
rradius 57.0528
rwrist -9.58981
rhand -25.3721 -11.1278
rfingers 7.12502
rthumb 1.15217 -41.1044
lclavicle -3.38928e-014 -2.22639e-014
lhumerus -49.1702 18.8889 75.6235
lradius 40.8944
lwrist -11.9112
lhand -13.4396 0.766982
lfingers 7.12502
lthumb 12.6694 30.3627
rfemur -13.022 -3.68659 16.1925
rtibia 33.53
rfoot -15.4308 -7.69908
rtoes -28.0928
lfemur -24.3189 -3.17349 -17.8727
ltibia 38.0547
lfoot -11.3056 0.693127
ltoes -1.29827
199
root 0.370373 17.9195 -23.4675 -179.523 22.2615 -182.174
lowerback 9.38195 0.296428 0.197678
upperback -0.724435 0.644301 2.62709
thorax -6.05987 0.38439 2.54535
lowerneck -15.6179 4.00072 3.5583
upperneck 19.1857 6.88778 -7.91662
head 9.00248 2.85181 -2.39661
rclavicle 2.24627e-014 -3.18055e-015
rhumerus -47.0914 -18.1733 -58.8442
rradius 57.5243
rwrist -9.51305
rhand -25.2704 -10.7753
rfingers 7.12502
rthumb 1.25042 -40.7514
lclavicle 2.24627e-014 -3.18055e-015
lhumerus -48.7717 18.1353 76.3067
lradius 40.7609
lwrist -11.9516
lhand -13.1435 0.67158
lfingers 7.12502
lthumb 12.9548 30.2494
rfemur -12.8539 -3.58532 16.3261
rtibia 33.186
rfoot -15.4069 -7.78701
rtoes -27.9355
lfemur -24.3003 -3.23078 -17.7388
ltibia 37.957
lfoot -11.3763 0.697713
ltoes -1.31275
200
root 0.386139 17.9293 -23.4971 -179.322 22.2021 -182.035
lowerback 9.34791 0.28416 0.239856
upperback -0.772957 0.63487 2.64795
thorax -6.09122 0.379285 2.54511
lowerneck -15.6266 4.01141 3.57886
upperneck 19.3107 6.91469 -7.90974
head 9.04912 2.86648 -2.39424
rclavicle -1.50082e-014 1.59028e-014
rhumerus -46.6938 -17.9372 -59.3285
rradius 57.9547
rwrist -9.38208
rhand -25.1687 -10.4165
rfingers 7.12502
rthumb 1.34859 -40.3919
lclavicle -1.50082e-014 1.59028e-014
lhumerus -48.3782 17.3465 76.9701
lradius 40.6555
lwrist -12.0476
lhand -12.8108 0.5438
lfingers 7.12502
lthumb 13.2756 30.101
rfemur -12.6935 -3.47108 16.491
rtibia 32.84
rfoot -15.3687 -7.90382
rtoes -27.8011
lfemur -24.3038 -3.28655 -17.5784
ltibia 37.8822
lfoot -11.4552 0.698069
ltoes -1.31417
201
root 0.401502 17.9385 -23.5266 -179.108 22.1314 -181.885
lowerback 9.30413 0.268946 0.299316
upperback -0.826598 0.623619 2.66983
thorax -6.12221 0.372794 2.53645
lowerneck -15.6262 4.01876 3.5986
upperneck 19.4327 6.93789 -7.90474
head 9.09289 2.87963 -2.39298
rclavicle 5.46658e-015 -3.18055e-015
rhumerus -46.3219 -17.6994 -59.8127
rradius 58.3467
rwrist -9.20261
rhand -25.0727 -10.072
rfingers 7.12502
rthumb 1.44137 -40.0469
lclavicle 5.46658e-015 -3.18055e-015
lhumerus -48.0013 16.5417 77.6039
lradius 40.5882
lwrist -12.1891
lhand -12.4526 0.384115
lfingers 7.12502
lthumb 13.6208 29.9185
rfemur -12.5464 -3.35364 16.6706
rtibia 32.4996
rfoot -15.3202 -8.04385
rtoes -27.6838
lfemur -24.3287 -3.34595 -17.4083
ltibia 37.8253
lfoot -11.539 0.69891
ltoes -1.31312
202
root 0.416391 17.9471 -23.5562 -178.888 22.0486 -181.734
lowerback 9.25059 0.250697 0.365834
upperback -0.88213 0.608798 2.68938
thorax -6.14942 0.364222 2.52186
lowerneck -15.6253 4.02458 3.61462
upperneck 19.5551 6.9596 -7.89725
head 9.13647 2.89216 -2.39043
rclavicle 6.08281e-014 4.92986e-014
rhumerus -45.9707 -17.4684 -60.2942
rradius 58.6918
rwrist -8.97871
rhand -24.9788 -9.72618
rfingers 7.12502
rthumb 1.53205 -39.7004
lclavicle 6.08281e-014 4.92986e-014
lhumerus -47.6368 15.7411 78.2005
lradius 40.5563
lwrist -12.3593
lhand -12.0553 0.222639
lfingers 7.12502
lthumb 14.0037 29.7309
rfemur -12.4138 -3.23782 16.8516
rtibia 32.172
rfoot -15.2673 -8.20427
rtoes -27.5833
lfemur -24.3704 -3.41597 -17.241
ltibia 37.7818
lfoot -11.6247 0.705727
ltoes -1.30318
203
root 0.430768 17.9551 -23.5857 -178.671 21.9531 -181.609
lowerback 9.18937 0.229507 0.414196
upperback -0.939476 0.586876 2.70077
thorax -6.17397 0.352384 2.50998
lowerneck -15.6271 4.03044 3.63281
upperneck 19.6781 6.98138 -7.89175
head 9.18099 2.90463 -2.38887
rclavicle 7.95139e-015 -5.1684e-014
rhumerus -45.6375 -17.2339 -60.7809
rradius 59.0006
rwrist -8.73015
rhand -24.9043 -9.44544
rfingers 7.12502
rthumb 1.60404 -39.4192
lclavicle 7.95139e-015 -5.1684e-014
lhumerus -47.2861 14.9636 78.7494
lradius 40.5633
lwrist -12.5578
lhand -11.6315 0.0607436
lfingers 7.12502
lthumb 14.412 29.5404
rfemur -12.2995 -3.13054 17.0062
rtibia 31.8641
rfoot -15.215 -8.37754
rtoes -27.4917
lfemur -24.4261 -3.50007 -17.1029
ltibia 37.7457
lfoot -11.7098 0.720914
ltoes -1.28241
204
root 0.444605 17.9624 -23.6151 -178.461 21.8453 -181.506
lowerback 9.12515 0.205193 0.447168
upperback -0.99339 0.558097 2.70504
thorax -6.19297 0.337361 2.50027
lowerneck -15.6438 4.03826 3.64872
upperneck 19.8034 7.00539 -7.88359
head 9.22912 2.91766 -2.38551
rclavicle 1.799e-014 1.74931e-014
rhumerus -45.3158 -16.993 -61.274
rradius 59.2689
rwrist -8.46544
rhand -24.8474 -9.2141
rfingers 7.12502
rthumb 1.65896 -39.1874
lclavicle 1.799e-014 1.74931e-014
lhumerus -46.9418 14.2257 79.2465
lradius 40.609
lwrist -12.7719
lhand -11.1775 -0.0905556
lfingers 7.12502
lthumb 14.8495 29.3573
rfemur -12.1998 -3.03234 17.1376
rtibia 31.5807
rfoot -15.1682 -8.5613
rtoes -27.4121
lfemur -24.4886 -3.59711 -16.9899
ltibia 37.713
lfoot -11.7925 0.741935
ltoes -1.25871
205
root 0.457991 17.9691 -23.6443 -178.262 21.7281 -181.425
lowerback 9.06074 0.18012 0.464862
upperback -1.04466 0.525701 2.70223
thorax -6.20898 0.320766 2.49222
lowerneck -15.664 4.04518 3.66482
upperneck 19.926 7.02808 -7.87727
head 9.27703 2.92981 -2.38291
rclavicle 4.26393e-014 -9.22361e-014
rhumerus -45.0049 -16.7568 -61.769
rradius 59.4877
rwrist -8.189
rhand -24.8058 -9.01518
rfingers 7.12502
rthumb 1.69911 -38.9882
lclavicle 4.26393e-014 -9.22361e-014
lhumerus -46.606 13.5326 79.6923
lradius 40.6889
lwrist -12.9842
lhand -10.7122 -0.219685
lfingers 7.12502
lthumb 15.2977 29.1946
rfemur -12.1115 -2.93986 17.2453
rtibia 31.3223
rfoot -15.1298 -8.75343
rtoes -27.3317
lfemur -24.5534 -3.70441 -16.9016
ltibia 37.6821
lfoot -11.8717 0.766188
ltoes -1.23478
206
root 0.471013 17.9752 -23.6733 -178.072 21.6004 -181.375
lowerback 8.99292 0.155858 0.458544
upperback -1.09215 0.490552 2.6914
thorax -6.21906 0.303247 2.48963
lowerneck -15.6987 4.04949 3.67485
upperneck 20.0499 7.04716 -7.8672
head 9.3276 2.93964 -2.37829
rclavicle 3.56818e-014 4.21423e-014
rhumerus -44.7076 -16.5139 -62.2661
rradius 59.6675
rwrist -7.9158
rhand -24.7783 -8.85414
rfingers 7.12502
rthumb 1.72572 -38.8269
lclavicle 3.56818e-014 4.21423e-014
lhumerus -46.2718 12.8895 80.0885
lradius 40.8008
lwrist -13.1794
lhand -10.2527 -0.321755
lfingers 7.12502
lthumb 15.7403 29.0582
rfemur -12.0355 -2.85982 17.321
rtibia 31.0857
rfoot -15.1012 -8.94742
rtoes -27.2542
lfemur -24.6242 -3.81986 -16.8451
ltibia 37.6544
lfoot -11.9497 0.788831
ltoes -1.21659
